<svg xmlns="http://www.w3.org/2000/svg" viewBox="0 0 64 64" role="img" aria-labelledby="title">
  <title id="title">Ehtisham Sajid favicon</title>
  <rect width="64" height="64" rx="14" fill="#0f172a"/>
  <path fill="#2563eb" d="M10 16a6 6 0 0 1 6-6h32a6 6 0 0 1 6 6v32a6 6 0 0 1-6 6H16a6 6 0 0 1-6-6z"/>
  <path fill="#fff" d="M20.7 43V21h16.1v4.8H26.2v4h9.3v4.6h-9.3v3.8h10.9V43zm19.1.3c-2.2 0-4.1-.4-5.7-1.2-1.6-.8-2.9-1.9-3.8-3.3l3.7-3.3c.8 1 1.7 1.8 2.7 2.4 1 .5 2.1.8 3.3.8 1 0 1.7-.2 2.2-.5.5-.3.8-.8.8-1.4 0-.6-.3-1.1-.8-1.4-.5-.3-1.5-.7-3-1.1-1.4-.4-2.6-.8-3.6-1.3-1-.5-1.8-1-2.4-1.6-.6-.6-1.1-1.3-1.3-2.1-.3-.8-.4-1.7-.4-2.7 0-1.3.3-2.4.8-3.4.6-1 1.3-1.8 2.3-2.5 1-.7 2.1-1.2 3.4-1.5 1.3-.4 2.6-.5 4-.5 1.9 0 3.6.3 5 .9 1.5.6 2.7 1.5 3.8 2.7l-3.4 3.5c-.8-.8-1.7-1.4-2.6-1.8-.9-.4-1.9-.6-2.9-.6-.9 0-1.6.2-2.1.5-.5.3-.8.8-.8 1.4s.3 1 .8 1.3c.5.3 1.5.6 2.9 1 1.5.4 2.8.8 3.8 1.3 1.1.5 1.9 1 2.6 1.7.7.7 1.1 1.4 1.4 2.3.3.9.4 1.8.4 2.9 0 2.4-.9 4.3-2.6 5.7-1.7 1.2-4 1.8-6.8 1.8z"/>
</svg>
